<svg xmlns="http://www.w3.org/2000/svg" viewBox="0 0 32 32" width="32" height="32">
  <!-- Background circle -->
  <circle cx="16" cy="16" r="16" fill="#000000"/>
  
  <!-- Blue gear behind head -->
  <g transform="translate(16, 16)">
    <!-- Gear teeth -->
    <path d="M-8,-8 L-6,-8 L-6,-12 L-8,-12 Z" fill="#3B82F6"/>
    <path d="M6,-8 L8,-8 L8,-12 L6,-12 Z" fill="#3B82F6"/>
    <path d="M-8,6 L-6,6 L-6,8 L-8,8 Z" fill="#3B82F6"/>
    <path d="M6,6 L8,6 L8,8 L6,8 Z" fill="#3B82F6"/>
    
    <!-- Gear center -->
    <circle cx="0" cy="0" r="6" fill="#3B82F6"/>
    <circle cx="0" cy="0" r="4" fill="#000000"/>
  </g>
  
  <!-- Dark grey person silhouette -->
  <g fill="#4B5563">
    <!-- Head -->
    <circle cx="16" cy="12" r="4"/>
    <!-- Upper torso -->
    <path d="M12 18 Q16 22 20 18 L20 16 Q16 20 12 16 Z"/>
  </g>
</svg>
